# xmcd CD database file
#
# Track frame offsets:
#	150
#	16280
#	31192
#	48276
#	61764
#	79744
#	95779
#	112670
#	134700
#	151877
#	170752
#	190278
#	208765
#	225365
#	241426
#	258738
#	272180
#	285964
#	304085
#	320605
#	346286
#
# Disc length: 4797 seconds
#
# Revision: 2
# Processed by: cddbd v1.4b41PL1 Copyright (c) Steve Scherf et al.
# Submitted via: Feurio! 1.50.2ß - http://www.feurio.com
#
DISCID=2612bb15
DTITLE=Various Artist - Ex B 29
DYEAR=1900
DGENRE=
TTITLE0=Gabrielle - Rise
TTITLE1=Gigi D Agostino - The Riddle
TTITLE2=Marc Anthony - You sang to me
TTITLE3=The Olsen Brothers - Fly On The Wings Of Love
TTITLE4=Ricky Martin feat. Meja - Privat Emotion
TTITLE5=Sasha - Let me be the one
TTITLE6=Lara Fabian - I Will Love Again
TTITLE7=Echt - Junimond
TTITLE8=Ayman - Mein Stern
TTITLE9=Echt - Weinst Du
TTITLE10=Joshua Kadison - Jessie
TTITLE11=Youssou N`Dour and Neneh Cherry - 7 Seconds
TTITLE12=All-4-One - I Swear
TTITLE13=Vengaboys - Shalala lala
TTITLE14=Reamonn - Supergirl
TTITLE15=Tom Jones and Stereophonics - Mama Told Me Not To Come
TTITLE16=H-Blockx vs. Dr. Ring-Ding - Ring Of Fire
TTITLE17=A-Ha - Summer moved on
TTITLE18=Zoff - Sauerland
TTITLE19=Bap - Verdamp lang her
TTITLE20=Die 3. Generation - Leb
EXTD=
EXTT0=
EXTT1=
EXTT2=
EXTT3=
EXTT4=
EXTT5=
EXTT6=
EXTT7=
EXTT8=
EXTT9=
EXTT10=
EXTT11=
EXTT12=
EXTT13=
EXTT14=
EXTT15=
EXTT16=
EXTT17=
EXTT18=
EXTT19=
EXTT20=
PLAYORDER=
